Coordinates
version=1
nRows=24
nColumns=24
inDegrees=yes

Units are S.I. units (second, meters, Newtons, ...)
Angles are in degrees.

endheader
time	pelvis_tilt	pelvis_list	pelvis_rotation	pelvis_tx	pelvis_ty	pelvis_tz	hip_flexion_r	hip_adduction_r	hip_rotation_r	knee_angle_r	ankle_angle_r	subtalar_angle_r	mtp_angle_r	hip_flexion_l	hip_adduction_l	hip_rotation_l	knee_angle_l	ankle_angle_l	subtalar_angle_l	mtp_angle_l	lumbar_extension	lumbar_bending	lumbar_rotation
      4.00000000	     -8.22704180	     -0.86288118	     -5.56273961	     -1.12366454	     -0.04387049	     -0.24286840	     -6.81798225	      2.23173997	      6.71247983	    -23.67574986	      5.39626995	      8.45636364	     17.25906483	     37.52393678	     -3.61474687	     -0.65864777	    -16.69970256	     -2.44825131	     12.29786602	     13.65403091	      7.59266471	      0.68539647	      4.30243845
      4.00500000	     -8.30143729	     -0.67138399	     -5.81604964	     -1.11579117	     -0.04523453	     -0.24309763	     -6.83426146	      1.86651955	      6.71827164	    -24.39054922	      4.94395295	      9.08530796	     17.73472757	     37.73572370	     -3.51779908	     -0.88462407	    -17.73551203	     -3.05682326	     12.06285065	     13.81428416	      7.81099777	      0.45229146	      4.66588481
      4.01000000	     -8.36819078	     -0.50548557	     -5.82694786	     -1.10788322	     -0.04661094	     -0.24368737	     -6.87887989	      1.49551410	      6.27150645	    -24.98596770	      4.11909655	      9.70284237	     19.37505090	     37.98487662	     -3.27579724	     -0.83011889	    -18.76830711	     -4.07743857	     11.43003535	     14.54315617	      8.01094479	      0.20151221	      4.70772052
      4.01500000	     -8.48347674	     -0.27797317	     -6.05681211	     -1.09999803	     -0.04791113	     -0.24390278	     -6.79224244	      1.07963138	      6.16138864	    -25.75715017	      3.51807829	     10.38898432	     19.92121681	     38.30054536	     -3.15900700	     -1.16198878	    -19.95381783	     -4.81288570	     11.03932535	     14.56932316	      8.26749965	     -0.08795762	      5.06669895
      4.02000000	     -8.57213423	     -0.09963001	     -6.00864509	     -1.09211855	     -0.04916133	     -0.24456188	     -6.76681355	      0.67765535	      5.59362190	    -26.37607265	      2.45589543	     11.05040127	     21.78288000	     38.62940764	     -2.86578970	     -1.03994248	    -21.13267205	     -5.84225486	     10.16984472	     14.82713041	      8.47328669	     -0.37101841	      5.04435322
      4.02500000	     -8.73553978	      0.15112046	     -6.19108919	     -1.08426719	     -0.05035251	     -0.24480592	     -6.55806436	      0.21825364	      5.34034038	    -27.21342729	      1.67149235	     11.86515876	     22.41709537	     39.04576791	     -2.70644663	     -1.32879755	    -22.42568440	     -6.58039675	      9.57337518	     14.63794606	      8.76832157	     -0.70121906	      5.37163059
      4.03000000	     -8.81378739	      0.36082108	     -6.08813429	     -1.07639414	     -0.05141520	     -0.24553215	     -6.49098838	     -0.23958782	      4.67000784	    -27.86821094	      0.35416278	     12.54414231	     24.41899176	     39.39181326	     -2.32773494	     -1.11597332	    -23.71143078	     -7.38287590	      8.59154958	     14.27272321	      8.94848576	     -1.03642290	      5.27863815
      4.03500000	     -8.97398128	      0.60689566	     -6.11271762	     -1.06853330	     -0.05246486	     -0.24605042	     -6.24496699	     -0.73692688	      4.12063313	    -28.69465155	     -0.83835876	     13.38329308	     25.69583328	     39.81779748	     -2.01867371	     -1.07704452	    -25.03978189	     -7.97253625	      7.73839402	     13.74875693	      9.22586512	     -1.38515711	      5.40927393
      4.04000000	     -9.08054457	      0.85474340	     -6.09816285	     -1.06068117	     -0.05336951	     -0.24662580	     -6.04514515	     -1.24936866	      3.54929168	    -29.50308300	     -2.21020093	     14.17634721	     27.14048708	     40.17148728	     -1.65388981	     -0.93918219	    -26.36045451	     -8.43166492	      6.85053192	     13.05560776	      9.43438863	     -1.74667722	      5.54385361
      4.04500000	     -9.19419782	      1.12161028	     -6.08794381	     -1.05276405	     -0.05423090	     -0.24722918	     -5.79062847	     -1.79680356	      2.95688888	    -30.38675799	     -3.67114999	     14.96771487	     28.40815222	     40.49196819	     -1.25320657	     -0.77775606	    -27.63806389	     -8.68489226	      5.94678966	     12.36046922	      9.66377008	     -2.11921224	      5.61928886
      4.05000000	     -9.27162931	      1.38041771	     -6.07264730	     -1.04497638	     -0.05496418	     -0.24781903	     -5.52519444	     -2.34166625	      2.39413975	    -31.31443356	     -5.27318257	     15.73174752	     29.75337125	     40.74088471	     -0.83690351	     -0.55754608	    -28.86081892	     -8.81996701	      5.11129965	     11.62139302	      9.82558676	     -2.49872303	      5.73231441
      4.05500000	     -9.40746874	      1.63722966	     -6.11529773	     -1.03718853	     -0.05569767	     -0.24839717	     -5.13229870	     -2.87707996	      1.98030481	    -32.37470603	     -6.78372778	     16.59549950	     30.34873332	     40.99604297	     -0.44747842	     -0.36561486	    -29.99693636	     -8.87040937	      4.19948596	     11.17335769	     10.05846156	     -2.83875345	      5.90752814
      4.06000000	     -9.48836785	      1.94084122	     -6.04515707	     -1.02935849	     -0.05635512	     -0.24910253	     -4.78335239	     -3.48331418	      1.38557205	    -33.43817825	     -8.47578118	     17.32183440	     31.23490607	     41.14268664	      0.07930915	     -0.10920306	    -31.04603091	     -8.72829711	      3.38676441	     10.66564836	     10.23662633	     -3.26320320	      5.95554134
      4.06500000	     -9.45828608	      2.17318134	     -6.04117601	     -1.02168888	     -0.05681742	     -0.24979806	     -4.51809292	     -4.02111643	      0.95364121	    -34.46277975	    -10.45026935	     17.85247671	     32.65803321	     41.11962035	      0.52058693	      0.12162099	    -32.04763371	     -8.29267927	      2.74525799	     10.09185617	     10.25864676	     -3.58808330	      6.08647800
      4.07000000	     -9.54015310	      2.50352486	     -6.00822751	     -1.01392764	     -0.05732376	     -0.25033046	     -4.06853178	     -4.60971522	      0.54560244	    -35.67059983	    -12.22473919	     18.18897445	     32.84180020	     41.14346591	      1.01430410	      0.20472174	    -32.88823265	     -7.88701302	      2.21628411	     10.00685232	     10.44707263	     -4.04237697	      6.16490980
      4.07500000	     -9.60430774	      2.80288710	     -5.97682087	     -1.00629971	     -0.05778168	     -0.25106474	     -3.59253921	     -5.19095346	      0.18088461	    -36.89625285	    -14.06293179	     18.60248789	     33.32075100	     41.09479182	      1.52655245	      0.36443293	    -33.64846416	     -7.34909095	      1.55012915	      9.80616729	     10.59459854	     -4.42193550	      6.27067779
      4.08000000	     -9.61766402	      3.09623864	     -5.95037615	     -0.99889946	     -0.05812151	     -0.25160560	     -3.09256388	     -5.72723974	     -0.14135812	    -38.24649355	    -15.84662828	     18.68629485	     33.22239077	     40.95503700	      1.98048939	      0.41856464	    -34.31515968	     -6.73081591	      1.22476444	      9.93406655	     10.65008735	     -4.82968799	      6.37082706
      4.08500000	     -9.69146494	      3.44568075	     -5.90582802	     -0.99150860	     -0.05842630	     -0.25225783	     -2.48526265	     -6.31442982	     -0.41796973	    -39.62557490	    -17.65731387	     18.66674837	     33.11051267	     40.81310181	      2.50132886	      0.45024357	    -34.85316317	     -6.09853129	      0.84060391	     10.01274773	     10.79007000	     -5.26989117	      6.44564052
      4.09000000	     -9.79276245	      3.82066877	     -5.85160977	     -0.98424032	     -0.05866568	     -0.25292880	     -1.79288156	     -6.91173524	     -0.65679283	    -41.04745703	    -19.47562819	     18.47601476	     32.93314285	     40.65586875	      3.03814828	      0.43902024	    -35.29165428	     -5.45190059	      0.50846220	     10.08963346	     10.95314418	     -5.73476188	      6.49734958
      4.09500000	     -9.90776375	      4.20693964	     -5.79174776	     -0.97708495	     -0.05883491	     -0.25361672	     -1.03124211	     -7.50614244	     -0.86684055	    -42.51109537	    -21.28815086	     18.10646976	     32.62263679	     40.47289851	      3.57278331	      0.38464891	    -35.64050666	     -4.78187100	      0.26583670	     10.19888650	     11.12455748	     -6.19509421	      6.53521103
      4.10000000	    -10.04208330	      4.61864435	     -5.72232499	     -0.97001747	     -0.05892843	     -0.25429955	     -0.19608035	     -8.11312009	     -1.07081792	    -44.00864423	    -23.07671449	     17.52263636	     32.13774715	     40.27122677	      4.11662887	      0.28444198	    -35.89956846	     -4.10529278	      0.11316706	     10.33793071	     11.31706041	     -6.68312488	      6.56529972
      4.10500000	    -10.19383769	      5.03164431	     -5.65505565	     -0.96306591	     -0.05893746	     -0.25494821	      0.71341281	     -8.70161100	     -1.24368961	    -45.53520871	    -24.81688432	     16.76696143	     31.46349155	     40.05353066	      4.64132239	      0.14768925	    -36.07700889	     -3.44332512	      0.03104321	     10.48561727	     11.52410645	     -7.17234851	      6.57645116
      4.11000000	    -10.45030184	      5.34368878	     -5.63818323	     -0.95630751	     -0.05893978	     -0.25550812	      1.81638681	     -9.11936160	     -1.28520561	    -47.12839789	    -26.42801776	     15.78356855	     30.15106099	     39.94346262	      5.00198802	     -0.06180660	    -36.24848524	     -2.76386962	      0.00721645	     10.57130696	     11.82288981	     -7.52139572	      6.60322695
      4.11500000	    -10.65824447	      5.71265989	     -5.57786326	     -0.94961294	     -0.05882182	     -0.25607644	      2.90793780	     -9.60137727	     -1.37916959	    -48.76315485	    -27.72762551	     14.81394387	     28.39331757	     39.73631567	      5.45077087	     -0.18088457	    -36.31875518	     -2.08915040	      0.14665271	     10.68899856	     12.06455360	     -7.94932021	      6.62321889
